HIERARCHY
ROOT pelvis
{
  OFFSET 0 100 0
  CHANNELS 6 Xposition Yposition Zposition Zrotation Xrotation Yrotation
  JOINT pelvis_right_femur
  {
    OFFSET -10.78128 -3.44521 -0.5502486
    CHANNELS 3 Zrotation Xrotation Yrotation
    JOINT right_femur_tibia
    {
      OFFSET -0.8047443 -44.0398 -0.1307829
      CHANNELS 3 Zrotation Xrotation Yrotation
      JOINT right_tibia_foot
      {
        OFFSET 3.006224 -47.83518 -5
        CHANNELS 3 Zrotation Xrotation Yrotation
        End Site
        {
          OFFSET 0 -5 15
        }
      }
    }
  }
  JOINT pelvis_left_femur
  {
    OFFSET 10.78128 -3.44521 -0.5502486
    CHANNELS 3 Zrotation Xrotation Yrotation
    JOINT left_femur_tibia
    {
      OFFSET 0.8047443 -44.0398 -0.1307829
      CHANNELS 3 Zrotation Xrotation Yrotation
      JOINT left_tibia_foot
      {
        OFFSET -4.370144 -48.10324 -4.275266
        CHANNELS 3 Zrotation Xrotation Yrotation
        End Site
        {
          OFFSET 0 -5 15
        }
      }
    }
  }
  JOINT pelvis_spine1
  {
    OFFSET 0 6.468898 -3.129235
    CHANNELS 3 Zrotation Xrotation Yrotation
    JOINT spine1
    {
      OFFSET 0 23.15396 4.99043
      CHANNELS 3 Zrotation Xrotation Yrotation
      JOINT spine2
      {
        OFFSET 0 20.79997 -5.064912
        CHANNELS 3 Zrotation Xrotation Yrotation
        JOINT neck
        {
          OFFSET 0 14.38658 9.616178
          CHANNELS 3 Zrotation Xrotation Yrotation
          End Site
          {
            OFFSET 0 20 0
          }
        }
      }
      JOINT right_manubrium
      {
        OFFSET -5.722621 16.35077 3.967754
        CHANNELS 3 Zrotation Xrotation Yrotation
        JOINT right_clavicle
        {
          OFFSET -13.16364 1.694482 -4.693211
          CHANNELS 3 Zrotation Xrotation Yrotation
          JOINT right_humerus
          {
            OFFSET -28.5034 -0.3100689 -2.792744
            CHANNELS 3 Zrotation Xrotation Yrotation
            JOINT right_radius
            {
              OFFSET -25.15693 0.02248979 -1.271978
              CHANNELS 3 Zrotation Xrotation Yrotation
              End Site
              {
                OFFSET -15 0 0
              }
            }
          }
        }
      }
      JOINT left_manubrium
      {
        OFFSET 5.722621 16.35077 3.967754
        CHANNELS 3 Zrotation Xrotation Yrotation
        JOINT left_clavicle
        {
          OFFSET 13.16364 1.694482 -4.693211
          CHANNELS 3 Zrotation Xrotation Yrotation
          JOINT left_humerus
          {
            OFFSET 29.39168 -1.063119 -2.237045
            CHANNELS 3 Zrotation Xrotation Yrotation
            JOINT left_radius
            {
              OFFSET 24.59957 -0.9528479 0.9047498
              CHANNELS 3 Zrotation Xrotation Yrotation
              End Site
              {
                OFFSET 15 -0 -0
              }
            }
          }
        }
      }
    }
  }
}
MOTION
Frames: 15
Frame Time: 0.0416666666667
0 103.5113 0 1.505056 -3.274288 0.2414709 1.870097 -12.01055 7.229833 -0 40.56596 -0 -7.672328 -13.16353 -2.888809 -6.866189 12.10725 -23.49417 -0 5.883533 -0 4.539791 -17.53385 25.4825 -2.696614 -3.347052 4.165946 -0.2750838 8.378041 -7.465448 1.315263 21.86824 9.34744 6.494918 -20.78111 8.820423 7.150945 -18.96448 10.43814 87.59893 36.01658 -23.15384 -0 0 17.96481 -7.38996 8.245425 2.607345 8.193542 -21.69027 -3.007051 -100.3744 42.91583 27.24866 0 0 -25.28278 -10.46853 17.22005 27.61962
0.1077085 104.0277 1.235407 0.7540524 -2.300115 0.29922 3.707658 -15.2489 8.77828 -0 42.30744 -0 -6.824866 -13.08259 -3.768865 -6.44565 12.22083 -23.7738 -0 5.803599 -0 2.390292 -19.86969 25.16785 -2.456082 -3.106374 4.171997 -0.2031192 8.305009 -7.442477 1.332988 21.90587 9.206027 6.346358 -21.00345 8.811951 6.985341 -18.8754 10.42079 87.78337 36.10332 -23.2107 -0 0 17.61319 -7.521363 8.4175 2.691575 8.030089 -21.63687 -3.015328 -100.0724 42.61197 27.07551 0 0 -25.36093 -10.10251 17.22809 27.42196
0.4189333 103.8439 3.626281 0.1322671 -0.248656 0.5041217 3.593317 -24.79142 6.255785 -0 33.15265 -0 -4.720123 -10.24208 -3.998681 -6.257843 11.84702 -19.55137 -0 4.856771 -0 4.088445 -20.64335 21.77963 -1.277417 -1.31231 3.417626 1.45638 7.429923 -7.755345 1.196467 22.1925 8.063011 4.808768 -23.49114 8.659737 5.749077 -17.68207 10.63087 88.7208 35.64469 -23.54897 -0 0 14.19307 -7.524901 8.437755 4.018588 5.760272 -20.37366 -3.36184 -96.87877 39.57971 24.70063 0 0 -24.88271 -7.405306 15.92223 24.9486
0.7013758 103.6221 6.101952 -0.4101941 1.995795 0.6050062 5.634118 -29.57936 7.27844 -0 28.25492 -0 -5.021161 -10.21142 -3.316377 -6.326755 12.32491 -20.2581 -0 6.072635 -0 6.710284 -21.11656 22.8909 -1.112202 -0.8905075 3.091507 2.0685 7.203122 -7.939352 1.108906 22.20894 7.771596 4.372768 -24.21197 8.565066 5.510742 -17.2565 10.76925 88.82831 35.32141 -23.63069 -0 0 13.15905 -7.342759 8.248006 4.50525 5.069316 -19.95261 -3.50036 -95.81729 38.5606 23.78705 0 0 -24.66687 -6.664804 15.29533 24.03921
0.9465423 103.1769 9.100108 -0.7055174 2.588507 0.7745199 6.063777 -32.63772 6.225274 -0 23.44053 -0 -5.397875 -7.725473 -2.80495 -6.061292 13.10807 -19.25353 -0 7.6172 -0 5.635186 -22.15422 21.4423 -0.8607369 -0.5243171 2.933956 2.488254 7.085418 -8.071179 1.063077 22.15467 7.519534 4.037129 -24.7872 8.4823 5.331697 -16.90332 10.86569 88.97815 35.12612 -23.77575 -0 0 12.28827 -7.148587 8.193971 4.820664 4.611775 -19.7339 -3.591216 -94.90543 37.62067 23.01221 0 0 -24.76156 -5.80204 14.77389 23.14687
1.134557 102.4998 12.65461 -0.6532227 2.053535 1.06171 5.315811 -33.36616 4.798432 -0 20.43418 -0 -4.97531 -5.92092 -3.201976 -5.721002 14.09738 -17.73992 -0 8.783368 -0 2.658624 -23.01215 19.07173 -0.7586543 -0.3472014 2.865634 2.683461 7.034826 -8.120204 1.028152 22.13053 7.417332 3.888695 -25.02929 8.426728 5.261857 -16.73425 10.93103 88.9871 35.06564 -23.76644 -0 0 11.87445 -7.195311 8.248651 5.044608 4.402413 -19.63535 -3.608145 -94.4571 37.09483 22.62673 0 0 -24.74005 -5.392151 14.52021 22.69113
1.235639 101.6489 16.91504 -0.478965 1.08961 1.524007 4.292001 -33.16313 3.560454 -0 17.79446 -0 -3.875278 -4.696001 -4.383552 -5.255857 15.48207 -15.91493 -0 10.51435 -0 -1.5755 -23.548 16.02357 -0.7153549 -0.1813918 2.804685 2.85343 6.985695 -8.134972 0.9716103 22.13525 7.35219 3.771591 -25.17682 8.341757 5.221747 -16.58766 11.02351 88.86898 35.07108 -23.58987 -0 0 11.52105 -7.527755 8.437799 5.395567 4.205854 -19.53206 -3.583912 -94.04758 36.52121 22.2753 0 0 -24.53716 -5.09877 14.30979 22.2944
1.246379 100.7784 21.91173 -0.3252358 0.2522465 2.142124 3.668768 -32.46416 3.047425 -0 15.64132 -0 -2.560085 -4.267469 -5.834771 -4.768764 16.97795 -14.34453 -0 13.01006 -0 -5.598222 -23.34308 13.23972 -0.7770967 -0.04240025 2.718166 3.024258 6.931388 -8.129232 0.889275 22.18036 7.320324 3.678523 -25.22228 8.220593 5.219808 -16.46165 11.14944 88.59845 35.11034 -23.2283 -0 0 11.23427 -8.140707 8.717287 5.897268 3.991197 -19.38867 -3.540926 -93.66886 35.91858 21.9421 0 0 -24.09191 -4.994815 14.13553 21.99132
1.164938 100.0555 27.68982 -0.2758104 -0.3320149 2.851129 3.624924 -31.25596 3.332469 -0 13.95758 -0 -1.190616 -4.559177 -7.377925 -4.216998 18.51789 -13.02537 -0 16.75177 -0 -9.194278 -22.09232 10.81946 -0.9217502 0.101882 2.608261 3.226466 6.88144 -8.114605 0.7836183 22.25271 7.288463 3.575123 -25.20538 8.051379 5.246842 -16.32676 11.31728 88.18083 35.1753 -22.68227 -0 0 10.93507 -9.032424 9.100596 6.58252 3.718277 -19.19432 -3.49659 -93.21224 35.16078 21.53787 0 0 -23.43293 -4.961912 13.94635 21.6666
1.013197 99.68343 34.19282 -0.4693349 -0.6206195 3.496635 4.339738 -29.32441 4.499341 -0 13.55912 -0 -0.11417 -5.510242 -8.665273 -3.57875 19.57782 -12.03619 -0 22.19331 -0 -11.61469 -19.29359 9.241496 -1.145326 0.2409309 2.511948 3.423453 6.863359 -8.078484 0.6698406 22.34765 7.251926 3.469112 -25.09027 7.840569 5.308876 -16.20767 11.5155 87.61249 35.29588 -21.9335 -0 0 10.66908 -10.23006 9.620317 7.429044 3.409154 -18.97126 -3.455503 -92.69575 34.2531 21.09176 0 0 -22.59181 -4.97743 13.77303 21.32588
0.8641976 99.92453 41.12021 -1.201211 -0.3688652 3.819271 6.067076 -26.71443 6.245652 -0 15.13122 -0 -0.2834985 -6.510644 -8.752833 -2.833767 18.87713 -11.64989 -0 30.02814 -0 -12.10511 -14.58329 8.901248 -1.406827 0.3760885 2.510308 3.543783 6.915192 -7.986953 0.5709341 22.45094 7.208722 3.377897 -24.83146 7.600916 5.4034 -16.14425 11.72569 86.88582 35.5302 -20.94021 -0 0 10.51072 -11.79343 10.34893 8.407274 3.110161 -18.76889 -3.40399 -92.15354 33.19004 20.66674 0 0 -21.645 -4.963584 13.64677 20.96022
0.857907 100.9245 47.87503 -2.399362 0.4367007 3.63904 8.182546 -23.57071 7.011705 -0 17.60677 -0 -2.72028 -6.24387 -6.555425 -2.276977 14.64852 -11.66794 -0 40.18218 -0 -10.88345 -8.788882 9.353314 -1.616522 0.5060356 2.725907 3.471484 7.066105 -7.783849 0.5212691 22.53605 7.169156 3.340833 -24.39398 7.367739 5.505099 -16.20842 11.90799 86.01786 35.92883 -19.68045 -0 0 10.60613 -13.69668 11.31371 9.419765 2.913696 -18.66634 -3.303894 -91.70653 32.07452 20.42445 0 0 -20.76064 -4.831604 13.59842 20.61152
1.063385 102.4811 54.08066 -2.913008 0.5487485 3.0522 8.857766 -19.27869 5.283638 -0 17.59251 -0 -6.434346 -4.54171 -3.242183 -2.39464 7.444143 -10.76569 -0 51.13355 -0 -9.220126 -4.577208 9.795303 -1.66303 0.6212663 3.2553 3.103031 7.290206 -7.41426 0.5487639 22.58199 7.152791 3.398863 -23.80821 7.193557 5.549989 -16.48371 12.00761 85.0733 36.49253 -18.20059 -0 0 11.11845 -15.75084 12.42056 10.30338 2.930687 -18.72943 -3.092268 -91.5617 31.16118 20.60552 0 0 -20.14485 -4.548993 13.65354 20.39047
1.31224 104.1561 59.93864 -1.939904 -1.731243 2.229908 7.794442 -12.95884 2.998324 -0 14.91464 -0 -8.398883 -3.718792 -2.114774 -2.754829 0.826544 -8.607934 -0 59.67392 -0 -7.561501 -3.716102 11.01711 -1.547328 0.6826758 4.057569 2.438177 7.505552 -6.867323 0.6520072 22.61656 7.181577 3.5534 -23.12369 7.123243 5.474704 -17.02032 11.99103 84.10506 37.21622 -16.56532 -0 0 12.11652 -17.84027 13.5781 10.97729 3.210252 -18.93082 -2.723231 -91.87775 30.69431 21.35877 0 0 -19.8111 -4.249465 13.89332 20.43213
1.467939 105.6645 65.62484 -0.5544823 -5.006394 1.413764 6.500906 -5.973098 2.658565 -0 13.02712 -0 -7.425569 -5.384066 -3.149875 -2.646984 -4.383338 -6.893055 -0 62.43994 -0 -6.581368 -4.660704 13.17279 -1.38821 0.6600179 5.000097 1.590002 7.679916 -6.194534 0.8102095 22.66251 7.244382 3.751994 -22.33812 7.144886 5.280564 -17.77875 11.88571 83.0595 38.06959 -14.75614 -0 0 13.49416 -20.12087 14.82736 11.59153 3.688858 -19.17269 -2.230869 -92.51974 30.54577 22.51233 0 0 -19.60145 -4.03709 14.32021 20.68015
